<svg xmlns="http://www.w3.org/2000/svg" width="460" height="380" viewBox="0 0 460 380" fill="none">
<g stroke="#B88030" stroke-width="1.2" stroke-linecap="round" opacity="0.85">
<path d="M14.0,70.0 L21.6,69.0 L29.2,68.2 L36.9,67.6 L44.5,67.1 L52.2,66.9 L59.9,66.8 L67.6,66.9 L75.3,67.1 L83.0,67.6 L90.6,68.2 L98.3,69.0 L106.0,70.0 L113.7,71.2 L121.3,72.5 L128.9,74.0 L136.5,75.7 L144.1,77.6 L151.7,79.6 L159.2,81.9 L166.7,84.3 L174.1,86.8 L181.5,89.6 L188.9,92.5 L196.2,95.6 L203.5,98.9 L210.7,102.3 L217.9,105.9 L225.0,109.7 L232.0,113.7 L239.0,117.8"/><path d="M10.0,95.0 L19.2,96.4 L28.4,98.0 L37.6,99.7 L46.7,101.7 L55.8,103.8 L64.9,106.1 L73.9,108.5 L82.9,111.2 L91.8,114.0 L100.7,117.1 L109.5,120.2 L118.3,123.6 L127.0,127.2 L135.6,130.9 L144.2,134.8 L152.8,138.8 L161.2,143.1 L169.6,147.5 L177.9,152.1 L186.1,156.8 L194.3,161.7 L202.4,166.8 L210.4,172.0 L218.3,177.5 L226.1,183.0 L233.8,188.8 L241.4,194.7 L249.0,200.7 L256.4,207.0 L263.8,213.3"/><path d="M20.0,120.0 L25.8,122.6 L31.5,125.4 L37.1,128.2 L42.8,131.1 L48.3,134.1 L53.9,137.3 L59.3,140.5 L64.7,143.8 L70.1,147.2 L75.4,150.7 L80.6,154.3 L85.8,158.0 L90.9,161.8 L96.0,165.7 L101.0,169.6 L105.9,173.7 L110.8,177.8 L115.6,182.1 L120.3,186.4 L125.0,190.8 L129.6,195.3 L134.1,199.9 L138.6,204.6 L143.0,209.3 L147.3,214.2 L151.5,219.1 L155.7,224.1 L159.7,229.2 L163.7,234.3 L167.7,239.6"/><path d="M14.0,310.0 L21.6,311.0 L29.2,311.8 L36.9,312.4 L44.5,312.9 L52.2,313.1 L59.9,313.2 L67.6,313.1 L75.3,312.9 L83.0,312.4 L90.6,311.8 L98.3,311.0 L106.0,310.0 L113.7,308.8 L121.3,307.5 L128.9,306.0 L136.5,304.3 L144.1,302.4 L151.7,300.4 L159.2,298.1 L166.7,295.7 L174.1,293.2 L181.5,290.4 L188.9,287.5 L196.2,284.4 L203.5,281.1 L210.7,277.7 L217.9,274.1 L225.0,270.3 L232.0,266.3 L239.0,262.2"/><path d="M10.0,285.0 L19.2,283.6 L28.4,282.0 L37.6,280.3 L46.7,278.3 L55.8,276.2 L64.9,273.9 L73.9,271.5 L82.9,268.8 L91.8,266.0 L100.7,262.9 L109.5,259.8 L118.3,256.4 L127.0,252.8 L135.6,249.1 L144.2,245.2 L152.8,241.2 L161.2,236.9 L169.6,232.5 L177.9,227.9 L186.1,223.2 L194.3,218.3 L202.4,213.2 L210.4,208.0 L218.3,202.5 L226.1,197.0 L233.8,191.2 L241.4,185.3 L249.0,179.3 L256.4,173.0 L263.8,166.7"/><path d="M20.0,260.0 L25.8,257.4 L31.5,254.6 L37.1,251.8 L42.8,248.9 L48.3,245.9 L53.9,242.7 L59.3,239.5 L64.7,236.2 L70.1,232.8 L75.4,229.3 L80.6,225.7 L85.8,222.0 L90.9,218.2 L96.0,214.3 L101.0,210.4 L105.9,206.3 L110.8,202.2 L115.6,197.9 L120.3,193.6 L125.0,189.2 L129.6,184.7 L134.1,180.1 L138.6,175.4 L143.0,170.7 L147.3,165.8 L151.5,160.9 L155.7,155.9 L159.7,150.8 L163.7,145.7 L167.7,140.4"/>
</g>
<g fill="#B88030" opacity="0.5">
<path d="M44.5,67.1 Q45.0,81.1 60.4,80.4 Q58.3,65.2 44.5,67.1 Z"/><path d="M75.3,67.1 Q88.1,69.3 90.4,55.0 Q76.0,54.1 75.3,67.1 Z"/><path d="M106.0,70.0 Q104.2,82.0 117.4,83.9 Q118.1,70.5 106.0,70.0 Z"/><path d="M136.5,75.7 Q147.1,79.5 151.3,67.8 Q139.2,64.8 136.5,75.7 Z"/><path d="M166.7,84.3 Q163.3,94.0 174.1,97.7 Q176.8,86.6 166.7,84.3 Z"/><path d="M196.2,95.6 Q204.4,100.4 209.6,91.3 Q200.1,87.0 196.2,95.6 Z"/><path d="M225.0,109.7 Q220.7,117.2 229.0,121.8 Q232.8,113.1 225.0,109.7 Z"/><path d="M239.0,117.8 Q241.4,127.4 252.2,125.7 Q248.5,115.3 239.0,117.8 Z"/><path d="M37.6,99.7 Q34.5,114.2 50.5,117.5 Q52.3,101.3 37.6,99.7 Z"/><path d="M64.9,106.1 Q78.0,111.2 83.6,96.7 Q68.6,92.5 64.9,106.1 Z"/><path d="M91.8,114.0 Q87.5,126.7 101.5,131.4 Q104.9,117.0 91.8,114.0 Z"/><path d="M118.3,123.6 Q129.5,129.6 136.0,117.2 Q123.1,111.9 118.3,123.6 Z"/><path d="M144.2,134.8 Q139.1,145.6 151.1,151.2 Q155.5,138.8 144.2,134.8 Z"/><path d="M169.6,147.5 Q178.9,153.9 185.9,143.7 Q175.0,137.6 169.6,147.5 Z"/><path d="M194.3,161.7 Q188.6,170.7 198.6,176.9 Q203.8,166.4 194.3,161.7 Z"/><path d="M218.3,177.5 Q225.7,184.0 232.9,175.8 Q224.0,169.4 218.3,177.5 Z"/><path d="M241.4,194.7 Q235.7,201.9 243.6,208.2 Q249.2,199.7 241.4,194.7 Z"/><path d="M263.8,213.3 Q272.2,214.2 273.2,204.9 Q263.8,204.8 263.8,213.3 Z"/><path d="M263.8,213.3 Q264.4,223.6 275.9,223.9 Q274.1,212.5 263.8,213.3 Z"/><path d="M42.8,131.1 Q37.0,141.7 48.7,147.9 Q53.9,135.7 42.8,131.1 Z"/><path d="M64.7,143.8 Q73.5,150.8 81.2,141.0 Q70.8,134.3 64.7,143.8 Z"/><path d="M85.8,158.0 Q79.6,166.4 88.9,173.3 Q94.9,163.3 85.8,158.0 Z"/><path d="M105.9,173.7 Q112.6,180.7 120.4,173.3 Q112.2,166.3 105.9,173.7 Z"/><path d="M125.0,190.8 Q118.8,197.2 125.8,204.1 Q132.0,196.4 125.0,190.8 Z"/><path d="M143.0,209.3 Q147.7,216.0 155.1,210.7 Q149.1,203.9 143.0,209.3 Z"/><path d="M159.7,229.2 Q153.9,233.7 158.9,240.2 Q164.9,234.5 159.7,229.2 Z"/><path d="M167.7,239.6 Q166.4,248.0 175.6,250.2 Q176.1,240.7 167.7,239.6 Z"/><path d="M44.5,312.9 Q44.0,326.8 59.4,327.2 Q58.4,311.9 44.5,312.9 Z"/><path d="M75.3,312.9 Q88.3,313.5 88.9,299.1 Q74.5,299.9 75.3,312.9 Z"/><path d="M106.0,310.0 Q107.8,322.0 121.1,319.9 Q117.7,306.9 106.0,310.0 Z"/><path d="M136.5,304.3 Q147.7,302.8 145.9,290.5 Q133.8,293.4 136.5,304.3 Z"/><path d="M166.7,295.7 Q170.1,305.5 180.9,301.7 Q176.1,291.4 166.7,295.7 Z"/><path d="M196.2,284.4 Q205.2,281.4 201.9,271.5 Q192.3,275.8 196.2,284.4 Z"/><path d="M225.0,270.3 Q229.2,277.7 237.4,273.1 Q232.0,265.3 225.0,270.3 Z"/><path d="M239.0,262.2 Q248.5,264.7 252.2,254.3 Q241.4,252.6 239.0,262.2 Z"/><path d="M37.6,280.3 Q40.7,294.7 56.6,291.3 Q51.7,275.7 37.6,280.3 Z"/><path d="M64.9,273.9 Q78.8,271.6 76.2,256.3 Q61.2,260.4 64.9,273.9 Z"/><path d="M91.8,266.0 Q96.1,278.6 110.1,273.8 Q104.0,260.4 91.8,266.0 Z"/><path d="M118.3,256.4 Q130.5,252.9 126.5,239.4 Q113.5,244.6 118.3,256.4 Z"/><path d="M144.2,245.2 Q149.4,256.1 161.3,250.3 Q154.5,239.0 144.2,245.2 Z"/><path d="M169.6,232.5 Q180.0,228.1 175.1,216.7 Q164.1,222.6 169.6,232.5 Z"/><path d="M194.3,218.3 Q199.9,227.3 209.8,221.0 Q202.6,211.7 194.3,218.3 Z"/><path d="M218.3,202.5 Q226.9,197.7 221.5,188.2 Q212.5,194.5 218.3,202.5 Z"/><path d="M241.4,185.3 Q247.2,192.5 255.1,186.1 Q248.0,178.8 241.4,185.3 Z"/><path d="M263.8,166.7 Q272.2,167.6 273.2,158.2 Q263.8,158.2 263.8,166.7 Z"/><path d="M263.8,166.7 Q274.1,167.5 275.9,156.1 Q264.4,156.4 263.8,166.7 Z"/><path d="M42.8,248.9 Q48.5,259.5 60.1,253.1 Q52.7,242.1 42.8,248.9 Z"/><path d="M64.7,236.2 Q74.8,231.2 69.2,220.1 Q58.7,226.7 64.7,236.2 Z"/><path d="M85.8,222.0 Q92.0,230.4 101.3,223.5 Q93.5,214.9 85.8,222.0 Z"/><path d="M105.9,206.3 Q113.9,200.8 107.8,192.0 Q99.6,198.9 105.9,206.3 Z"/><path d="M125.0,189.2 Q131.3,195.6 138.3,188.6 Q130.7,182.3 125.0,189.2 Z"/><path d="M143.0,170.7 Q149.0,165.2 142.9,158.5 Q136.9,165.2 143.0,170.7 Z"/><path d="M159.7,150.8 Q165.6,155.4 170.6,148.9 Q163.6,144.5 159.7,150.8 Z"/><path d="M167.7,140.4 Q176.1,139.3 175.6,129.8 Q166.4,132.0 167.7,140.4 Z"/>
</g>
</svg>